<?xml version="1.0" encoding="UTF-8"?>
<svg width="24" height="25" viewBox="0 0 24 25" fill="none" xmlns="http://www.w3.org/2000/svg">
    <g clip-path="url(#clip0_2581_3550)">
        <path d="M12 23.4062C12.7828 23.4062 13.8937 22.7313 14.9016 20.7203C15.3656 19.7922 15.7547 18.6719 16.0312 17.4062H7.96875C8.24531 18.6719 8.63438 19.7922 9.09844 20.7203C10.1063 22.7313 11.2172 23.4062 12 23.4062ZM7.70156 15.9062H16.2984C16.4297 14.9594 16.5 13.9516 16.5 12.9062C16.5 11.8609 16.4297 10.8531 16.2984 9.90625H7.70156C7.57031 10.8531 7.5 11.8609 7.5 12.9062C7.5 13.9516 7.57031 14.9594 7.70156 15.9062ZM7.96875 8.40625H16.0312C15.7547 7.14062 15.3656 6.02031 14.9016 5.09219C13.8937 3.08125 12.7828 2.40625 12 2.40625C11.2172 2.40625 10.1063 3.08125 9.09844 5.09219C8.63438 6.02031 8.24531 7.14062 7.96875 8.40625ZM17.8125 9.90625C17.9344 10.8672 18 11.8703 18 12.9062C18 13.9422 17.9344 14.9453 17.8125 15.9062H22.0687C22.35 14.9547 22.5047 13.9469 22.5047 12.9062C22.5047 11.8656 22.3547 10.8578 22.0687 9.90625H17.8125ZM21.4922 8.40625C20.2781 5.85156 18.0656 3.86406 15.3563 2.95469C16.3406 4.28125 17.1187 6.17969 17.5687 8.40625H21.4969H21.4922ZM6.44062 8.40625C6.89062 6.175 7.66875 4.28125 8.65313 2.95469C5.93906 3.86406 3.72187 5.85156 2.5125 8.40625H6.43594H6.44062ZM1.94063 9.90625C1.65938 10.8578 1.50469 11.8656 1.50469 12.9062C1.50469 13.9469 1.65469 14.9547 1.94063 15.9062H6.1875C6.06563 14.9453 6 13.9422 6 12.9062C6 11.8703 6.06563 10.8672 6.1875 9.90625H1.93594H1.94063ZM15.3516 22.8578C18.0609 21.9437 20.2734 19.9609 21.4875 17.4062H17.5641C17.1141 19.6375 16.3359 21.5312 15.3516 22.8578ZM8.64844 22.8578C7.66406 21.5312 6.89062 19.6328 6.43594 17.4062H2.5125C3.72656 19.9609 5.93906 21.9484 8.64844 22.8578ZM12 24.9062C8.8174 24.9062 5.76516 23.642 3.51472 21.3915C1.26428 19.1411 0 16.0888 0 12.9062C0 9.72365 1.26428 6.67141 3.51472 4.42097C5.76516 2.17053 8.8174 0.90625 12 0.90625C15.1826 0.90625 18.2348 2.17053 20.4853 4.42097C22.7357 6.67141 24 9.72365 24 12.9062C24 16.0888 22.7357 19.1411 20.4853 21.3915C18.2348 23.642 15.1826 24.9062 12 24.9062Z" fill="white"/>
    </g>
    <defs>
        <clipPath id="clip0_2581_3550">
            <rect width="24" height="24" fill="white" transform="translate(0 0.90625)"/>
        </clipPath>
    </defs>
</svg>
